<svg width="111" height="60" viewBox="0 0 111 60" fill="none" xmlns="http://www.w3.org/2000/svg">
<path d="M0 0.5H111V55.5C111 57.7091 109.209 59.5 107 59.5H4C1.79086 59.5 0 57.7091 0 55.5V0.5Z" fill="white"/>
<g clip-path="url(#clip0_960_1180)">
<path d="M44.0162 16.2125C41.4281 16.2535 40.751 17.209 40.7129 19.4366L40.5517 32.2188C40.4726 38.034 38.0428 43.8844 29.2848 43.8844C21.9191 43.8844 16.3033 40.6983 16.3033 32.1807V19.4366C16.3033 17.209 15.5881 16.2535 13 16.2125V15.0195C16.186 15.1368 17.5372 15.1368 18.8122 15.1368C20.0872 15.1368 21.4502 15.1368 24.6245 15.0195V16.2125C22.0393 16.2535 21.3212 17.209 21.3212 19.4366V33.1744C21.3212 39.1478 25.1052 42.3719 29.5633 42.3719C36.4922 42.3719 38.9602 37.9109 38.9602 30.9849C38.9602 28.7544 38.9191 27.1745 38.881 25.4159L38.7609 19.6418C38.7198 17.253 38.204 16.2183 35.2964 16.2183V15.0254C36.7619 15.0635 38.3623 15.1426 39.5962 15.1426C40.8302 15.1426 42.4628 15.0635 44.0162 15.0254V16.2125Z" fill="#CC0011"/>
<path d="M71.5695 23.8568H70.5319C69.6526 18.1237 64.7988 16.0134 60.0212 16.0134C54.7248 16.0134 49.5896 20.196 49.5896 27.9192C49.5896 35.4051 53.8895 42.2139 60.7774 42.2139C63.7641 42.2139 68.4215 40.4553 71.8479 35.0475L71.8655 39.7372C68.5505 42.5305 63.7641 43.8758 59.5024 43.8758C45.7265 43.8758 43.6953 33.2068 43.6953 28.866C43.6953 22.4177 48.2765 14.5039 60.6572 14.5039C63.1662 14.5039 67.7855 15.222 71.5695 16.7344V23.8568Z" fill="#CC0011"/>
<path d="M92.7286 17.7986V17.778C92.6876 17.6549 92.5322 17.013 93.52 16.8782C93.6421 16.6368 93.8092 16.4209 94.0124 16.2422C94.1986 16.4478 94.3564 16.6775 94.4814 16.9251C94.6974 16.9648 94.8945 17.0743 95.0423 17.2369C95.19 17.3995 95.2803 17.6061 95.2991 17.8249C95.2991 17.8249 94.8008 17.5318 94.6836 17.9041L94.7364 19.1615H95.9293C96.0089 19.0955 96.0668 19.0071 96.0955 18.9078C96.1243 18.8085 96.1225 18.7029 96.0905 18.6046C96.0905 18.6046 96.8731 18.2441 96.9171 19.4165C97.1663 19.5147 97.3986 19.6512 97.6059 19.821C97.4239 20.0671 97.1666 20.2472 96.8731 20.3339C96.8731 20.3339 96.7793 21.1751 96.0465 21.1311C96.0465 21.1311 96.2957 20.671 95.9381 20.5244H94.6836V21.7701C94.7068 21.815 94.7387 21.8549 94.7773 21.8875C94.816 21.9201 94.8607 21.9447 94.9089 21.9599C94.9571 21.9752 95.0079 21.9808 95.0582 21.9764C95.1086 21.972 95.1576 21.9576 95.2024 21.9342C95.2024 21.9342 95.5834 22.752 94.5019 22.752C94.3853 23.0211 94.2204 23.2664 94.0153 23.476C93.7934 23.2649 93.6238 23.005 93.52 22.7168C93.52 22.7168 92.7374 22.6494 92.7257 21.9225C92.7257 21.9225 93.1448 22.0837 93.3383 21.7818L93.2826 20.5332H92.0838C92.034 20.5607 91.9908 20.5986 91.957 20.6444C91.9233 20.6901 91.8997 20.7425 91.8881 20.7982C91.8764 20.8538 91.8768 20.9113 91.8893 20.9667C91.9019 21.0221 91.9262 21.0742 91.9607 21.1194C91.9607 21.1194 91.1488 21.3861 91.0814 20.3427C90.8248 20.2243 90.593 20.0582 90.3984 19.8532C90.6057 19.6454 90.853 19.4819 91.1253 19.3725C91.1253 19.3725 91.2367 18.546 91.9695 18.5548C91.9695 18.5548 91.7027 19.0501 92.0721 19.1703H93.3353V17.9129C93.3079 17.8601 93.2688 17.8144 93.2211 17.7789C93.1733 17.7435 93.1182 17.7194 93.0597 17.7084C93.0013 17.6974 92.9412 17.6998 92.8838 17.7154C92.8264 17.731 92.7734 17.7595 92.7286 17.7986ZM93.6079 17.7458V19.4546H91.8991C91.8069 19.4147 91.728 19.3494 91.6714 19.2664C91.6149 19.1834 91.583 19.086 91.5796 18.9856C91.4953 19.0686 91.4294 19.1684 91.3859 19.2784C91.3425 19.3885 91.3226 19.5064 91.3276 19.6246C91.22 19.6212 91.1128 19.6391 91.0122 19.6773C90.9116 19.7156 90.8195 19.7733 90.7414 19.8474C90.8943 19.9867 91.0915 20.0677 91.2983 20.076C91.3217 20.8439 91.5914 20.8175 91.5914 20.8175C91.5005 20.4805 91.8845 20.2313 91.8845 20.2313H93.5815V21.9108C93.5269 21.9966 93.4548 22.0699 93.37 22.1259C93.2851 22.182 93.1894 22.2195 93.0891 22.2361C93.1712 22.4442 93.7193 22.5292 93.7193 22.5292C93.7164 22.6435 93.7416 22.7567 93.7927 22.8589C93.8438 22.9611 93.9193 23.0492 94.0124 23.1155C94.1648 23.0158 94.2205 22.5087 94.2205 22.5087C94.8243 22.6436 94.9562 22.2537 94.9562 22.2537C94.8371 22.2524 94.7205 22.22 94.6177 22.1599C94.5149 22.0998 94.4295 22.0139 94.37 21.9108V20.2606H96.0495C96.3191 20.3339 96.3924 20.7706 96.3924 20.7706C96.5512 20.5674 96.6415 20.3191 96.6503 20.0613C96.7485 20.0653 96.8464 20.0497 96.9385 20.0155C97.0306 19.9813 97.115 19.9291 97.1867 19.862C97.1191 19.7831 97.0356 19.7193 96.9417 19.6749C96.8477 19.6304 96.7454 19.6063 96.6415 19.6041C96.709 18.9886 96.4012 18.8391 96.4012 18.8391C96.3961 18.9574 96.3676 19.0735 96.3173 19.1806C96.267 19.2878 96.1959 19.3839 96.1081 19.4634H94.3671V17.7341C94.4307 17.6515 94.5107 17.5829 94.6019 17.5325C94.6932 17.4821 94.7938 17.4509 94.8976 17.441C94.6979 17.2912 94.4555 17.209 94.2058 17.2065C94.2092 17.0027 94.136 16.805 94.0007 16.6525C93.8596 16.8081 93.7705 17.0038 93.7457 17.2124C93.1859 17.0922 93.0217 17.4234 93.0217 17.4234C93.1379 17.4212 93.2525 17.4499 93.354 17.5066C93.4554 17.5632 93.54 17.6458 93.5991 17.7458H93.6079Z" fill="#CC0011"/>
<path d="M74.5156 17.8024L75.8375 16.4805L77.8277 18.4706L79.8237 16.4805L81.2072 17.8639L78.7392 20.2087V23.4329H76.8634V20.2087L74.5156 17.8024ZM77.1184 20.0798V23.1193H78.4755V20.0593L80.706 17.8551L79.7944 16.8908L77.813 18.8693L75.7994 16.8556L74.8996 17.7906L77.1184 20.0798Z" fill="#CC0011"/>
<path d="M77.5392 19.0547H78.0492L77.9378 19.509L78.2807 19.339V19.9076L77.9876 19.7933V20.6492C77.9528 20.758 77.8948 20.858 77.8176 20.9423C77.759 20.9423 77.7033 20.828 77.6476 20.6492V19.7933L77.3047 19.9076V19.3478L77.6476 19.5178L77.5392 19.0547Z" fill="#CC0011"/>
<path d="M77.4835 21.1641H78.0521L77.9407 21.5627L78.2837 21.4484V21.9613L77.9407 21.847V22.7615C77.8821 22.9315 77.8264 22.9872 77.7678 22.9872C77.6853 22.9354 77.6248 22.8551 77.5978 22.7615V21.847L77.3047 21.9613V21.4484L77.6476 21.5627L77.4747 21.1641H77.4835Z" fill="#CC0011"/>
<path d="M75.4375 17.8635L75.8361 17.4648L76.0647 17.8048L76.1791 17.4648L76.5777 17.8635L76.2347 17.9778L76.9177 18.6607C76.9922 18.7583 77.0324 18.8779 77.032 19.0007C76.9083 19.0009 76.7879 18.9608 76.689 18.8864L76.0061 18.2621L75.8947 18.5552L75.4932 18.1566L75.8361 18.0423L75.4375 17.8723V17.8635Z" fill="#CC0011"/>
<path d="M79.7622 17.4043L80.1609 17.8029L79.8209 18.0315L80.1609 18.1459L79.7622 18.5445L79.5922 18.2514L78.965 18.9343C78.8549 18.9689 78.7404 18.9876 78.625 18.99C78.6292 18.8898 78.649 18.791 78.6836 18.6969L79.3636 18.014L79.0705 17.844L79.4134 17.4453L79.5834 17.7853L79.7534 17.3867L79.7622 17.4043Z" fill="#CC0011"/>
<path d="M79.2578 35.3235C79.4307 35.3499 80.0551 35.5375 80.0551 35.5375C80.1049 35.4613 80.5563 35.0011 80.5563 35.0011C80.4507 34.9454 79.8411 34.7344 79.8411 34.7344C79.7737 34.7901 79.2578 35.3235 79.2578 35.3235Z" fill="#CC0011"/>
<path d="M92.9689 35.7305L92.7344 35.9679L92.9689 36.2024L93.2033 35.9679L92.9689 35.7305Z" fill="#CC0011"/>
<path d="M91.386 34.8253L91.1515 35.0598L90.9141 34.8253L91.1515 34.5938L91.386 34.8253Z" fill="#CC0011"/>
<path d="M92.5336 35.3996L92.05 35.8715L91.5781 35.3967L92.0647 34.9102L92.5336 35.3996ZM92.0559 35.3088L91.9709 35.3879L92.0559 35.4729L92.1497 35.3938L92.0559 35.3088Z" fill="#CC0011"/>
<path d="M82.26 31.5958C82.2475 31.5876 82.2374 31.5762 82.2307 31.5628C82.224 31.5495 82.221 31.5346 82.2219 31.5196C82.223 31.5284 82.223 31.5372 82.2219 31.546C82.2023 31.5981 82.1979 31.6548 82.2094 31.7093C82.2208 31.7638 82.2475 31.8139 82.2864 31.8538L82.386 31.7512L82.4857 31.6515C82.4845 31.6388 82.4845 31.6261 82.4857 31.6134C82.4994 31.5877 82.5077 31.5593 82.5099 31.5302C82.5121 31.5011 82.5083 31.4719 82.4987 31.4444C82.489 31.4168 82.4738 31.3916 82.4539 31.3702C82.434 31.3489 82.4099 31.3319 82.3831 31.3203L82.3186 31.4463L82.26 31.5958Z" fill="#CC0011"/>
<path d="M98.0931 25.1481C98.1488 42.1715 86.0231 44.6189 86.0231 44.6189C86.0231 44.6189 73.9531 42.0572 73.9531 25.1481V15.3555H98.0931V25.1481ZM74.4661 15.8303V24.7406C74.4661 24.7406 75.2662 25.3913 75.9316 25.3679C75.9316 25.3679 76.4445 25.5408 77.2799 24.6615C77.2799 24.6615 78.0214 23.7822 78.848 23.8027C78.848 23.8027 79.3345 23.6562 80.5128 24.512C80.5128 24.512 81.3276 25.3913 82.3212 25.3913C82.3212 25.3913 83.2005 25.4499 84.1502 24.5501C84.1502 24.5501 84.965 23.7998 85.9088 23.7793C85.9088 23.7793 86.6123 23.6503 87.7261 24.5706C87.7261 24.5706 88.5585 25.3943 89.555 25.3913C89.8987 25.3666 90.2332 25.2692 90.5364 25.1054C90.8395 24.9417 91.1045 24.7155 91.3136 24.4417C91.3136 24.4417 92.1285 23.6298 92.9843 23.6503C93.6163 23.6898 94.208 23.9737 94.6345 24.4417C94.6345 24.4417 95.5754 25.4499 96.3023 25.362C96.3023 25.362 97.1611 25.362 97.5655 24.7348V15.8537L74.4661 15.8303ZM85.8678 25.4324H85.6186V27.9296H85.8678V25.4324ZM86.4042 25.4324H86.155V27.9296H86.4042V25.4324ZM86.6621 25.2008C86.7116 25.1016 86.7377 24.9923 86.7383 24.8813C86.739 24.7732 86.7152 24.6663 86.6686 24.5687C86.622 24.4711 86.5539 24.3853 86.4694 24.3178C86.3849 24.2503 86.2862 24.2029 86.1807 24.1791C86.0752 24.1552 85.9657 24.1556 85.8603 24.1803C85.755 24.2049 85.6567 24.2531 85.5727 24.3212C85.4887 24.3893 85.4212 24.4756 85.3754 24.5736C85.3295 24.6715 85.3065 24.7786 85.308 24.8867C85.3096 24.9949 85.3356 25.1012 85.3842 25.1979H85.8649C85.8067 25.1678 85.758 25.1225 85.7239 25.0667C85.6898 25.0108 85.6716 24.9467 85.6714 24.8813C85.6794 24.7932 85.7201 24.7113 85.7855 24.6516C85.8508 24.592 85.9361 24.5589 86.0246 24.5589C86.1131 24.5589 86.1984 24.592 86.2637 24.6516C86.3291 24.7113 86.3697 24.7932 86.3778 24.8813C86.3776 24.9478 86.3588 25.013 86.3236 25.0694C86.2884 25.1259 86.2381 25.1714 86.1785 25.2008H86.6621ZM83.3764 36.7813V37.7515H89.133C89.133 37.7515 89.6107 39.8706 90.8916 40.0377V39.1174C90.8916 39.1174 90.5311 39.2053 90.2731 38.5311L89.939 37.5786C89.939 37.5786 91.3723 37.0803 92.1109 36.3006L91.2667 35.817C90.7835 36.1721 90.2527 36.4572 89.6898 36.6641L89.3528 35.5913L88.5028 35.773L88.8252 36.7872L83.3764 36.7813ZM84.3436 37.983V38.3113H86.2781V37.9772L84.3436 37.983ZM83.4292 37.9567V39.9175H87.8257C87.8257 39.9175 88.0602 39.9175 88.0514 39.6948C88.0514 39.6948 88.0866 39.5394 87.8667 39.3196L86.5742 37.9479V38.6044H84.0505V37.9625L83.4292 37.9567ZM82.7462 40.2106V40.533H89.5374L87.175 37.9567H87.008L88.1804 39.2258C88.2574 39.3185 88.3094 39.4294 88.3315 39.5479C88.3536 39.6664 88.3449 39.7886 88.3064 39.9029C88.3064 39.9029 88.2155 40.1813 87.773 40.196L82.7462 40.2106ZM92.8993 36.4911C93.5911 36.7989 93.7786 36.4267 93.7786 36.4267C94.0424 35.9372 93.4562 35.5708 93.4562 35.5708L91.1847 34.2665C90.5516 34.0877 90.3874 34.4717 90.3874 34.4717C90.3267 34.6068 90.317 34.7593 90.3601 34.9011C90.4032 35.0428 90.4962 35.1641 90.6219 35.2425L92.8993 36.4911ZM83.139 37.5199V36.7579C82.3387 36.3724 81.5189 36.029 80.6828 35.7291C80.6828 35.7291 81.0198 35.3246 81.1342 35.2103C81.989 35.5874 82.8056 36.0457 83.5728 36.5791H84.5224C82.5752 35.0363 80.2674 34.0145 77.8162 33.6099C77.8162 33.6099 77.5642 33.5455 77.4762 33.8708C77.4618 33.9479 77.477 34.0276 77.5189 34.0939C77.5607 34.1602 77.6261 34.2083 77.7019 34.2284C78.1986 34.2988 78.6887 34.4096 79.1674 34.5596L78.5373 35.2073C78.5373 35.2073 77.6052 35.0315 77.1157 34.9758C77.0721 34.9738 77.0286 34.9806 76.9876 34.9957C76.9466 35.0107 76.9091 35.0338 76.8772 35.0636C76.8453 35.0933 76.8196 35.1291 76.8016 35.1689C76.7837 35.2087 76.7739 35.2517 76.7728 35.2953C76.7728 35.2953 76.7347 35.5737 76.9604 35.6529C76.9692 35.6529 80.2666 35.8082 83.139 37.5199ZM82.2597 29.9843C82.3606 29.9032 82.4823 29.8523 82.6109 29.8372C82.7395 29.8222 82.8697 29.8437 82.9866 29.8993C83.0468 29.8847 83.1097 29.8848 83.1699 29.8996C83.2301 29.9144 83.2858 29.9434 83.3324 29.9843C83.3089 29.8815 83.3105 29.7746 83.337 29.6725C83.3635 29.5705 83.4142 29.4763 83.4849 29.398C83.4699 29.4448 83.4649 29.4942 83.4704 29.543C83.4758 29.5919 83.4915 29.639 83.5164 29.6813C83.5413 29.7236 83.5748 29.7602 83.6149 29.7887C83.6549 29.8172 83.7005 29.8369 83.7486 29.8465C83.3676 30.0927 83.7486 30.2803 83.7486 30.2803C83.3354 30.5294 83.7164 30.7199 83.7164 30.7199C83.4233 30.9808 83.7838 31.013 83.7838 31.013C83.6724 31.5992 84.0769 31.7575 84.0769 31.7575C84.0301 31.772 83.9801 31.772 83.9333 31.7575C84.0386 32.3803 84.0386 33.0164 83.9333 33.6393C83.9521 33.6807 83.9618 33.7257 83.9618 33.7711C83.9618 33.8166 83.9521 33.8616 83.9333 33.903C84.0183 34.1405 83.7516 34.1522 83.7516 34.1522C83.6983 34.2885 83.6262 34.4167 83.5376 34.5332L83.6373 34.6651L83.8659 34.372L83.9216 34.4277L83.7516 34.7706L84.0447 34.712C84.1266 34.6815 84.1979 34.6279 84.2499 34.5577C84.302 34.4874 84.3325 34.4036 84.3378 34.3163C84.1824 33.8415 84.4521 33.6891 84.4521 33.6891C84.244 33.0325 84.54 31.6374 84.54 31.6374C84.9738 31.5905 84.7452 31.0805 84.7452 31.0805C85.0559 30.9134 84.8155 30.5675 84.8155 30.5675C85.0793 30.4239 84.8888 30.0546 84.8888 30.0546C85.1526 29.8758 84.9973 29.4479 84.9973 29.4479C85.2904 29.3277 85.0793 28.9584 85.0793 28.9584C85.3197 28.803 85.0793 28.3722 85.0793 28.3722C85.2933 28.4455 85.3724 28.0791 85.3724 28.0791V25.2946C85.2737 25.3037 85.1783 25.3347 85.0931 25.3854C85.0079 25.4361 84.9351 25.5052 84.88 25.5877C84.7693 25.5853 84.6605 25.6173 84.5687 25.6792C84.4768 25.7412 84.4064 25.83 84.3671 25.9336C84.2398 25.937 84.1175 25.9836 84.02 26.0655C83.9226 26.1475 83.8559 26.2601 83.8307 26.3849C83.4145 26.3849 83.4145 26.8979 83.4145 26.8979C83.3193 26.9177 83.2356 26.9737 83.1809 27.0541C83.1263 27.1345 83.1049 27.2329 83.1214 27.3287C83.0438 27.3745 82.9784 27.4384 82.931 27.515C82.8835 27.5916 82.8553 27.6785 82.8488 27.7684C82.5762 27.8886 82.5762 28.2696 82.5762 28.2696C82.2421 28.3634 82.3593 28.7327 82.3593 28.7327C82.1102 28.8411 82.204 29.2222 82.204 29.2222C82.1316 29.2845 82.073 29.3613 82.0321 29.4476C81.9912 29.5339 81.9689 29.6279 81.9666 29.7234C82.073 29.7992 82.1739 29.8824 82.2685 29.9725L82.2597 29.9843ZM81.9021 30.5558C82.163 31.057 82.4883 31.0336 82.4883 31.0336C82.6085 31.0535 82.7319 31.0405 82.8454 30.9962C82.9589 30.9518 83.0583 30.8776 83.1331 30.7815C83.1993 30.7 83.2393 30.6003 83.2477 30.4957C83.256 30.391 83.2324 30.2863 83.18 30.1953C83.0833 30.0165 82.9661 30.2305 82.9661 30.2305C82.8107 30.6965 82.6202 30.673 82.6202 30.673C82.3564 30.7786 82.1659 30.3272 82.1659 30.3272C82.1039 30.1943 82.0041 30.0825 81.879 30.0059C81.7539 29.9293 81.609 29.8912 81.4624 29.8963C81.6578 30.0766 81.8109 30.2978 81.9109 30.5441L81.9021 30.5558ZM81.9373 31.4498C81.9246 31.5341 81.8947 31.615 81.8493 31.6872C81.9662 31.7426 82.0709 31.8206 82.1574 31.9167C82.2439 32.0128 82.3106 32.125 82.3535 32.247C82.629 32.8186 82.8781 32.6398 82.8781 32.6398L82.7638 32.461C82.7356 32.4302 82.7199 32.3899 82.7199 32.3481C82.7199 32.3064 82.7356 32.2661 82.7638 32.2353C82.8693 32.1532 82.9895 32.2705 82.9895 32.2705C82.7492 31.7341 83.1536 31.6168 83.1536 31.6168C83.1733 31.4404 83.1407 31.262 83.0599 31.1039C82.9414 31.173 82.8102 31.2172 82.6741 31.2338C82.5381 31.2504 82.4 31.2392 82.2685 31.2006C82.1807 31.3035 82.0704 31.3848 81.9461 31.438L81.9373 31.4498ZM82.3535 30.1982L82.4707 30.4122C82.4707 30.4122 82.5323 30.5441 82.6524 30.4122C82.7302 30.3133 82.7871 30.1996 82.8195 30.078C82.8195 30.078 82.673 29.9725 82.3623 30.1924L82.3535 30.1982ZM81.4009 30.2949C81.2542 30.1632 81.0614 30.0947 80.8645 30.1044C81.0055 30.2622 81.1339 30.4307 81.2485 30.6086C81.2485 30.6086 81.3393 30.3301 81.4097 30.2832L81.4009 30.2949ZM83.2943 31.7458C83.2588 31.7787 83.2194 31.8073 83.1771 31.8308C83.1432 31.8658 83.1243 31.9126 83.1243 31.9612C83.1243 32.0099 83.1432 32.0567 83.1771 32.0917C83.1771 32.0917 83.4262 32.4991 83.2123 32.6779C83.3114 33.0971 83.3114 33.5336 83.2123 33.9529C83.1363 34.1229 83.0878 34.304 83.0686 34.4893L83.2005 34.2489H83.2826L83.224 34.542L83.4028 34.501C83.48 34.3637 83.5326 34.2139 83.5581 34.0584C83.5581 34.0584 83.5171 33.8092 83.6783 33.7653C83.6526 33.7207 83.639 33.6702 83.639 33.6187C83.639 33.5673 83.6526 33.5167 83.6783 33.4722C83.6783 33.4722 83.9069 32.9358 83.6578 31.7136C83.6063 31.7493 83.5459 31.7702 83.4834 31.7738C83.4208 31.7774 83.3584 31.7637 83.3031 31.7341L83.2943 31.7458ZM83.309 31.1274C83.309 31.1274 83.3559 31.3765 83.3559 31.4498L83.4145 31.5201H83.5112L83.4966 31.2475L83.309 31.1274ZM87.9488 34.7237L88.4061 34.4306L88.4383 34.4922C88.3045 34.5846 88.1816 34.6917 88.0719 34.8117C88.0719 34.8117 88.1511 34.8703 88.6347 34.7149C88.7357 34.6839 88.8241 34.6213 88.8867 34.5361C88.8867 34.5361 88.9805 34.4717 88.8867 34.328C88.8362 34.2593 88.8095 34.1759 88.8105 34.0906C88.8438 34.1008 88.8792 34.1015 88.9129 34.0927C88.9465 34.0839 88.977 34.066 89.0011 34.0408C89.0011 34.0408 89.0362 34.0408 89.0861 33.9353C89.0789 33.8802 89.0862 33.8242 89.1073 33.7728C89.1283 33.7214 89.1624 33.6764 89.2062 33.6422C89.2062 33.6422 89.1212 31.7341 89.2414 31.5905C89.2414 31.5905 89.3205 31.1977 89.0069 31.1274C89.0069 31.1274 89.3704 30.7903 89.0567 30.6525C89.0567 30.6525 89.4348 30.2979 89.0011 30.1543C89.0011 30.1543 89.4642 29.8289 89.1535 29.5505C89.2159 29.4701 89.246 29.3693 89.2379 29.2679C89.2298 29.1664 89.184 29.0717 89.1095 29.0024C89.1095 29.0024 89.2209 28.5217 88.9219 28.4718C88.9219 28.4718 89.1652 28.1377 88.878 28.0498C88.878 28.0498 89.0421 27.5867 88.7138 27.443C88.7138 27.443 89.0773 27.4636 89.1564 27.9442C89.1564 27.9442 89.4055 28.0644 89.2297 28.378C89.307 28.4455 89.3624 28.5347 89.3885 28.634C89.4146 28.7333 89.4103 28.8381 89.3762 28.9349C89.4409 29.0167 89.4815 29.1149 89.4934 29.2184C89.5053 29.322 89.4881 29.4268 89.4436 29.5211C89.4436 29.5211 89.6986 29.9198 89.3352 30.1279C89.3964 30.1906 89.4334 30.2729 89.4398 30.3603C89.4463 30.4477 89.4217 30.5346 89.3704 30.6056C89.4004 30.6371 89.4237 30.6743 89.4391 30.7149C89.4545 30.7556 89.4616 30.7989 89.46 30.8424C89.4583 30.8858 89.448 30.9285 89.4296 30.9679C89.4112 31.0072 89.3851 31.0425 89.3528 31.0717C89.3875 31.1424 89.4055 31.2201 89.4055 31.2988C89.4055 31.3776 89.3875 31.4553 89.3528 31.526C89.3528 31.526 89.725 31.8191 90.0093 31.5905C90.0706 31.5183 90.112 31.4314 90.1294 31.3384C90.1469 31.2454 90.1399 31.1494 90.109 31.0599C90.109 31.0599 90.2878 30.8899 90.1881 30.7317C90.2151 30.6851 90.2255 30.6307 90.2175 30.5774C90.2095 30.5241 90.1837 30.4752 90.1442 30.4386C90.1943 30.3522 90.2146 30.2517 90.2019 30.1526C90.1892 30.0535 90.1442 29.9614 90.0738 29.8905C90.0952 29.7972 90.0961 29.7004 90.0764 29.6067C90.0566 29.5131 90.0168 29.4249 89.9595 29.3482C89.9795 29.2612 89.9748 29.1703 89.9458 29.0859C89.9167 29.0014 89.8646 28.9268 89.7954 28.8705C89.7954 28.8705 89.895 28.4689 89.6517 28.2843C89.6546 28.1945 89.6368 28.1052 89.5997 28.0234C89.5626 27.9416 89.5072 27.8694 89.4378 27.8124C89.4403 27.6994 89.4101 27.5881 89.3508 27.4919C89.2915 27.3957 89.2057 27.3187 89.1036 27.2701C89.0914 27.1681 89.0497 27.0719 88.9836 26.9933C88.9174 26.9147 88.8298 26.857 88.7314 26.8275C88.7091 26.7373 88.6609 26.6557 88.5926 26.5926C88.5244 26.5296 88.4391 26.4879 88.3474 26.4729C88.3522 26.3982 88.3304 26.3243 88.2859 26.2642C88.2413 26.2041 88.177 26.1618 88.1042 26.1446C88.1042 26.1446 88.0602 25.8075 87.5766 25.8368C87.5464 25.7564 87.494 25.6862 87.4256 25.6343C87.3571 25.5824 87.2753 25.551 87.1897 25.5437C87.1441 25.492 87.0868 25.4519 87.0225 25.4269C86.9583 25.402 86.8889 25.3928 86.8204 25.4001L86.6914 25.3122V28.0674C86.6914 28.0674 86.6914 28.1553 86.6357 28.1612C86.6357 28.1612 86.6123 28.5686 86.8761 28.6741C86.8391 28.7524 86.8283 28.8405 86.8452 28.9255C86.862 29.0104 86.9058 29.0877 86.9698 29.146C86.9698 29.146 86.8907 29.5446 87.1193 29.6882C87.1193 29.6882 87.005 30.0165 87.2131 30.1455C87.1839 30.2416 87.1824 30.3441 87.2088 30.4411C87.2353 30.538 87.2886 30.6256 87.3626 30.6936C87.3626 30.6936 87.3626 31.0218 87.6411 31.0658C87.6411 31.0658 87.8199 31.4351 88.1188 31.3589C88.1188 31.3589 88.453 31.5875 88.198 33.5777C88.125 33.6122 88.0669 33.6716 88.0341 33.7453C88.0013 33.819 87.996 33.902 88.0192 33.9793C88.0192 33.9793 87.8433 34.0848 87.7466 34.5303H87.8023L88.2185 34.1668C88.1788 34.0989 88.1658 34.0187 88.1821 33.9418C88.1984 33.8648 88.2427 33.7967 88.3064 33.7506C88.3314 33.609 88.3769 33.4718 88.4412 33.3432C88.5478 32.7524 88.5528 32.1478 88.4559 31.5553C88.411 31.4931 88.3828 31.4204 88.3738 31.3442C88.2501 31.3057 88.1455 31.222 88.0807 31.1098C87.9791 31.0993 87.8844 31.0537 87.8127 30.981C87.7411 30.9083 87.6969 30.8129 87.688 30.7111C87.4681 30.6086 87.4886 30.3096 87.4886 30.3096C87.1955 30.1455 87.3597 29.7615 87.3597 29.7615C87.1252 29.6325 87.1897 29.1987 87.1897 29.1987C86.9552 29.0492 87.0812 28.7268 87.0812 28.7268C86.8966 28.6418 86.9698 28.3253 86.9698 28.3253C86.7266 28.0703 86.9317 27.657 86.9317 27.657C86.9147 27.7746 86.9318 27.8947 86.9812 28.0028C87.0306 28.111 87.1101 28.2026 87.2102 28.2667C87.0812 28.4806 87.3069 28.6829 87.3069 28.6829C87.1574 28.9525 87.4564 29.1343 87.4564 29.1343C87.4178 29.2338 87.4094 29.3425 87.4324 29.4468C87.4553 29.5511 87.5085 29.6463 87.5854 29.7205C87.4242 30.0839 87.7231 30.1806 87.7231 30.1806C87.6088 30.4474 87.9283 30.588 87.9283 30.588C87.8316 30.9193 88.2595 30.928 88.2595 30.928C88.1833 31.1215 88.5526 31.3325 88.5526 31.3325C88.5199 31.3464 88.4853 31.3553 88.45 31.3589C88.5224 31.4394 88.6212 31.4913 88.7285 31.5055C88.7843 32.1236 88.7843 32.7456 88.7285 33.3637C88.704 33.4808 88.6727 33.5963 88.6347 33.7096C88.6251 33.7521 88.6251 33.7961 88.6347 33.8386C88.6155 33.8749 88.5874 33.9058 88.5531 33.9283C88.5188 33.9509 88.4793 33.9644 88.4383 33.9675C88.4004 33.993 88.3685 34.0263 88.3447 34.0653C88.321 34.1042 88.3059 34.1479 88.3005 34.1932L87.9488 34.7237ZM81.5005 30.5587L81.5885 30.6467C81.6676 30.8401 81.4273 30.8548 81.4273 30.8548C81.31 30.8782 81.3188 31.013 81.4448 31.0365H81.4595C81.489 31.0392 81.5171 31.0504 81.5404 31.0685C81.5638 31.0867 81.5815 31.1112 81.5914 31.1391C81.6383 31.2387 81.5152 31.3442 81.5152 31.3442C81.4967 31.3756 81.4899 31.4124 81.4957 31.4483C81.5016 31.4842 81.5199 31.5168 81.5474 31.5406C81.6002 31.5817 81.6676 31.4937 81.6676 31.4937V31.3179C81.6676 31.1449 81.8611 31.1655 81.8611 31.1655C81.9443 31.175 82.0282 31.1553 82.0985 31.1098C81.9621 31.0268 81.8468 30.9134 81.7614 30.7786L81.5855 30.4503L81.5005 30.5587Z" fill="#CC0011"/>
<path d="M83.1494 17.5409C83.5447 17.5718 83.9404 17.4852 84.2866 17.2918C84.2866 17.2918 85.1923 16.7495 85.9544 17.2918C86.2348 17.1387 86.5486 17.057 86.8681 17.054C87.1876 17.0509 87.5029 17.1265 87.7863 17.2742C87.7863 17.2742 88.5747 17.6757 89.114 17.5673V17.6406L89.7266 17.6933V18.1916H90.0666V19.1032H89.7208V19.3464H90.0666V20.2638H89.7208V20.6654H90.0666V21.5447H89.7208V21.9111H90.0666V22.8168H89.7208V23.1099H86.4673C86.3168 23.1803 86.1527 23.2168 85.9866 23.2168C85.8205 23.2168 85.6564 23.1803 85.5059 23.1099H82.4371V22.7259L82.0883 22.6995L82.2349 22.7904L81.9418 23.0835L81.4406 22.6233L81.1944 22.6057C81.1944 22.6057 80.9833 22.4856 81.1944 22.3302L81.4318 22.3038L81.9271 21.8642L82.2642 22.1573L82.0913 22.1778V22.2775L82.4313 22.2306V21.3982L82.0649 21.363L82.2202 21.4714L81.9271 21.7851L81.423 21.3073H81.2032C81.2032 21.3073 80.957 21.1607 81.2032 21.0142L81.4318 20.9966L81.9183 20.5482L82.2466 20.8413L82.0737 20.9321L82.4313 20.9145V20.0792L82.0268 20.0264L82.2202 20.1349L81.9271 20.428L81.4406 20.0118L81.2032 19.9942C81.2032 19.9942 80.9746 19.874 81.2032 19.7011H81.4318L81.9271 19.235L82.2466 19.5282L82.0268 19.6395L82.4489 19.6044V18.7954L82.0825 18.769L82.2642 18.8423L81.9359 19.1735L81.4846 18.7602H81.2354C81.2354 18.7602 80.9423 18.6635 81.2354 18.4671L81.379 18.4466L81.933 17.963L82.2261 18.2561L81.9975 18.3938L82.4196 18.3645V17.7138L83.1318 17.6699L83.1494 17.5409ZM82.7742 22.55L83.1318 22.1837V17.9952L82.7654 18.0245L82.7742 22.55ZM85.4327 22.7523L85.7609 22.0752C83.7297 22.5237 83.3428 22.3859 83.3428 22.3859L82.9852 22.7611L85.4327 22.7523ZM85.972 22.3214L85.6994 22.8695C85.889 22.9366 86.0959 22.9366 86.2856 22.8695L85.972 22.3214ZM86.1478 22.0547L86.5406 22.7611H89.199L88.8033 22.4123C88.0663 22.4173 87.3322 22.3187 86.6227 22.1192C86.4658 22.0883 86.3072 22.0668 86.1478 22.0547ZM89.1228 22.3038L89.3808 22.5325V18.0245L89.1228 17.9952V22.3038ZM83.4366 22.1104C83.8492 22.1093 84.2606 22.0671 84.6647 21.9844C85.289 21.8671 85.8196 21.7733 85.8196 21.7733V17.8311L85.9661 17.6582L86.1127 17.8311V21.7528C86.5696 21.8073 87.0228 21.8895 87.4697 21.999C87.9173 22.0955 88.3751 22.1359 88.8327 22.1192V17.8809C88.4226 17.8378 88.0246 17.7164 87.6602 17.5233C87.3939 17.3987 87.1008 17.3421 86.8072 17.3584C86.5136 17.3748 86.2287 17.4637 85.9778 17.6171C85.7609 17.4553 85.5009 17.3615 85.2307 17.3474C84.9605 17.3333 84.6921 17.3996 84.4595 17.538C84.1469 17.7159 83.7961 17.8164 83.4366 17.8311V22.1104Z" fill="#CC0011"/>
</g>
<defs>
<clipPath id="clip0_960_1180">
<rect width="85" height="30.7759" fill="white" transform="translate(13 14.5)"/>
</clipPath>
</defs>
</svg>
